# xmcd
#
# Track frame offsets: 
#        150
#        15125
#        28351
#        35449
#        49712
#        65845
#        77373
#
# Disc length: 1232 seconds
#
# Revision: 2
# Processed by: cddbd v1.5.2PL0 Copyright (c) Steve Scherf et al.
# Submitted via: ExactAudioCopy v1.3
#
DISCID=4d04ce07
DTITLE=Lindisfarne - The River Sessions (Disc.2)
DYEAR=2004
DGENRE=Folk
TTITLE0=Squire
TTITLE1=Peter Brophy Don't Care
TTITLE2=Picture A Little Girl
TTITLE3=Money Game
TTITLE4=Dan The Plan
TTITLE5=Golden Oldies
TTITLE6=Angels At Eleven
EXTD=
EXTT0=
EXTT1=
EXTT2=
EXTT3=
EXTT4=
EXTT5=
EXTT6=
PLAYORDER=
